<svg width="500" height="500" viewBox="0 0 500 500" fill="none" xmlns="http://www.w3.org/2000/svg">
<path d="M491.677 197.888L490.975 196.023L422.921 11.63C421.536 8.01594 419.084 4.95017 415.917 2.87251C412.748 0.830142 409.052 -0.153527 405.328 0.0543151C401.603 0.262158 398.03 1.6515 395.09 4.03476C392.183 6.48645 390.074 9.80856 389.05 13.549L343.099 159.507H157.031L111.08 13.549C110.084 9.78819 107.97 6.44942 105.04 4.00773C102.101 1.62447 98.5272 0.235123 94.8026 0.0272802C91.0781 -0.180562 87.3818 0.803107 84.2129 2.84547C81.053 4.93153 78.6035 7.99462 77.2096 11.6029L9.02552 195.915L8.34862 197.78C-1.44806 224.355 -2.6573 253.517 4.90322 280.868C12.4637 308.219 28.3841 332.276 50.264 349.414L50.4983 349.603L51.1232 350.062L154.792 430.663L206.08 470.964L237.321 495.452C240.976 498.333 245.438 499.892 250.026 499.892C254.614 499.892 259.077 498.333 262.731 495.452L293.972 470.964L345.26 430.663L449.554 349.576L449.814 349.36C471.645 332.219 487.528 308.186 495.077 280.872C502.626 253.558 501.433 224.438 491.677 197.888Z" fill="#E24329"/>
<path d="M491.677 197.888L490.974 196.023C457.814 203.09 426.567 217.673 399.464 238.73L250 356.063C300.897 396.039 345.208 430.772 345.208 430.772L449.502 349.684L449.762 349.468C471.624 332.328 487.532 308.28 495.092 280.943C502.651 253.605 501.453 224.458 491.677 197.888Z" fill="#FC6D26"/>
<path d="M154.792 430.771L206.08 471.072L237.321 495.56C240.975 498.441 245.438 500 250.026 500C254.614 500 259.076 498.441 262.731 495.56L293.972 471.072L345.26 430.771C345.26 430.771 300.897 395.931 250 356.062C199.103 395.931 154.792 430.771 154.792 430.771Z" fill="#FCA326"/>
<path d="M100.51 238.728C73.4293 217.628 42.1882 203.007 9.02552 195.914L8.34862 197.779C-1.44806 224.354 -2.6573 253.516 4.90322 280.867C12.4637 308.218 28.3841 332.276 50.264 349.413L50.4983 349.602L51.1231 350.061L154.792 430.662C154.792 430.662 199.051 395.93 250 355.954L100.51 238.728Z" fill="#FC6D26"/>
</svg>
